<?xml version="1.0" encoding="UTF-8" standalone="no"?> <svg width="101" height="101" viewBox="0 0 101 101" fill="none" xmlns="http://www.w3.org/2000/svg">
<path d="M49.999 4.604C35.722 4.604 24.107 16.22 24.107 30.498C24.107 31.327 24.778 31.998 25.607 31.998C26.436 31.998 27.107 31.327 27.107 30.498C27.107 17.874 37.377 7.604 49.999 7.604C62.589 7.604 72.838 17.817 72.895 30.394C72.64 32.178 69.317 55.438 68.229 60.439C67.909 61.918 67.485 64.105 66.995 66.637C66.266 70.404 65.357 75.092 64.483 78.978C63.031 85.44 57.879 92.394 49.998 92.394C39.285 92.394 34.818 85.146 34.198 78.266C33.429 73.341 33.151 67.157 34.045 65.751C34.676 64.752 36.616 63.78 38.37 63.586C39.475 63.462 40.138 63.685 40.366 63.912C41.016 64.563 41.306 66.784 41.54 68.568C41.921 71.483 42.316 74.497 44.367 75.681C45.536 76.361 47.139 76.116 48.278 75.793C49.82 75.354 51.723 74.409 52.436 73.071C53.476 71.117 52.299 68.558 51.161 66.085C50.569 64.796 49.831 63.193 49.867 62.437C49.929 61.063 52.36 58.63 54.313 56.676C57.243 53.744 60.009 50.976 59.704 48.166C59.207 43.688 50.793 37.217 45.184 36.997C42.043 36.86 41.213 39.765 40.609 41.882C39.977 44.092 39.556 45.143 38.421 45.224C38.257 45.233 37.988 45.254 37.624 44.728C35.61 41.824 36.403 31.635 38.441 27.179C41.129 21.289 45.044 18.303 49.983 18.405C58.526 18.522 62.226 29.492 62.261 29.601C62.518 30.387 63.36 30.821 64.152 30.563C64.94 30.307 65.371 29.46 65.115 28.672C64.94 28.136 60.722 15.551 50.024 15.404C45.712 15.345 39.731 17.125 35.712 25.931C33.447 30.884 32.274 42.279 35.159 46.437C36.022 47.682 37.254 48.314 38.634 48.215C41.988 47.976 42.858 44.929 43.493 42.705C44.123 40.499 44.456 39.943 45.063 39.994C49.392 40.164 56.413 45.714 56.721 48.494C56.871 49.872 54.166 52.579 52.191 54.556C49.514 57.236 46.985 59.766 46.87 62.299C46.8 63.783 47.595 65.511 48.436 67.34C49.028 68.626 50.13 71.022 49.79 71.659C49.361 72.383 46.601 73.375 45.872 73.086C45.099 72.64 44.748 69.955 44.516 68.18C44.178 65.601 43.859 63.165 42.491 61.793C41.517 60.816 39.938 60.395 38.04 60.604C35.817 60.851 32.825 62.066 31.511 64.146C29.561 67.215 30.939 76.833 31.223 78.631C32.332 91.004 42.031 95.394 49.999 95.394C58.166 95.394 65.326 88.915 67.412 79.636C68.296 75.706 69.208 70.994 69.941 67.207C70.427 64.692 70.848 62.52 71.162 61.075C72.31 55.795 75.736 31.73 75.882 30.708C75.892 30.638 75.897 30.568 75.897 30.497C75.895 16.22 64.278 4.604 49.999 4.604Z" fill="black" stroke="black" stroke-width="2.2"/>
</svg>
